# xmcd
#
# Track frame offsets: 
#        150
#        13355
#        29053
#        41880
#        54311
#        68794
#        81717
#        96374
#        110979
#        125761
#        142202
#        157308
#        173849
#
# Disc length: 2574 seconds
#
# Revision: 0
# Processed by: cddbd v1.5.2PL0 Copyright (c) Steve Scherf et al.
# Submitted via: ExactAudioCopy v1.0b1
#
DISCID=d50a0c0d
DTITLE=Various Artist - Big City Blues - CD 2 - Blues in Odd Meters
DYEAR=2009
DGENRE=Blues
TTITLE0=Cowboys And Truckers - Roger Cicero, Lars-Luis Linek Band
TTITLE1=Someone To Love - Madeleine Lang, Lars-Luis Linek Band
TTITLE2=Island - Madeleine Lang, Lars-Luis Linek Band
TTITLE3=Motorbiker - Madeleine Lang, Lars-Luis Linek Band
TTITLE4=Odd Meter Bluesband - Robbie Smith, Lars-Luis Linek Band
TTITLE5=Herb Geller - Robbie Smith, Lars-Luis Linek Band
TTITLE6=Time - Robbie Smith, Lars-Luis Linek Band
TTITLE7=Fight And Struggle - Cynthia Utterbach, Lars-Luis Linek Band
TTITLE8=Moving On - Cynthia Utterbach, Lars-Luis Linek Band
TTITLE9=Too Proud - Cynthia Utterbach, Lars-Luis Linek Band
TTITLE10=Wallenstein Blues - Abi Wallenstein, Lars-Luis Linek Band
TTITLE11=Schluter Blues - Wolfgang Schluter, Lars-Luis Linek Band
TTITLE12=Geller Blues - Herb Geller, Lars-Luis Linek Band
EXTD=
EXTT0=
EXTT1=
EXTT2=
EXTT3=
EXTT4=
EXTT5=
EXTT6=
EXTT7=
EXTT8=
EXTT9=
EXTT10=
EXTT11=
EXTT12=
PLAYORDER=
